<?xml version="1.0" encoding="UTF-8" standalone="no"?>
<!DOCTYPE svg PUBLIC "-//W3C//DTD SVG 1.1//EN" "http://www.w3.org/Graphics/SVG/1.1/DTD/svg11.dtd">
<svg xmlns="http://www.w3.org/2000/svg" xmlns:xl="http://www.w3.org/1999/xlink" version="1.1" viewBox="38 -648 590 552" width="590pt" height="46pc" xmlns:dc="http://purl.org/dc/elements/1.1/">
  <metadata> Produced by OmniGraffle 7.2 
    <dc:date>2018-11-06 17:29:03 +0000</dc:date>
  </metadata>
  <defs/>
  <g stroke="none" stroke-opacity="1" stroke-dasharray="none" fill="none" fill-opacity="1">
    <title>版面 1</title>
    <rect fill="white" width="700" height="700"/>
    <g>
      <title>图层 1</title>
      <path d="M 499.4 -487.2 C 499.4 -576.8 422.6 -647.2 333 -647.2 C 243.4 -647.2 173 -576.8 166.6 -487.2 C 83.4 -474.4 38.6 -442.4 38.6 -410.4 C 38.6 -340 192.2 -308 333 -308 C 473.8 -308 627.4 -340 627.4 -404 C 627.4 -442.4 582.6 -474.4 499.4 -487.2 Z M 320.2 -615.2 L 333 -615.2 C 403.4 -615.2 461 -557.6 461 -487.2 C 461 -461.6 403.4 -442.4 333 -442.4 C 288.2 -442.4 249.8 -448.8 224.2 -461.6 C 230.6 -544.8 288.2 -596 320.2 -615.2 Z M 275.4 -602.4 C 243.4 -576.8 217.8 -532 211.4 -474.4 C 205 -474.4 205 -480.8 205 -487.2 C 205 -532 230.6 -576.8 275.4 -602.4 Z M 333 -327.2 C 166.6 -327.2 51.4 -372 51.4 -410.4 C 51.4 -436 96.2 -461.6 166.6 -474.4 C 179.4 -423.2 262.6 -410.4 333 -410.4 C 403.4 -410.4 486.6 -429.6 499.4 -474.4 C 569.8 -461.6 614.6 -436 614.6 -410.4 C 614.6 -365.6 499.4 -327.2 333 -327.2 Z" fill="white"/>
      <path d="M 153.8 -429.6 C 128.2 -429.6 115.4 -416.8 115.4 -404 C 115.4 -391.2 134.6 -378.4 153.8 -378.4 C 179.4 -378.4 192.2 -391.2 192.2 -404 C 192.2 -423.2 179.4 -429.6 153.8 -429.6 Z M 153.8 -397.6 C 141 -397.6 128.2 -404 128.2 -404 C 128.2 -404 134.6 -410.4 153.8 -410.4 C 166.6 -410.4 179.4 -404 179.4 -404 C 179.4 -404 166.6 -397.6 153.8 -397.6 Z M 333 -397.6 C 307.4 -397.6 294.6 -384.8 294.6 -372 C 294.6 -359.2 313.8 -346.4 333 -346.4 C 358.6 -346.4 371.4 -359.2 371.4 -372 C 371.4 -384.8 358.6 -397.6 333 -397.6 Z M 333 -359.2 C 320.2 -359.2 307.4 -365.6 307.4 -372 C 307.4 -372 313.8 -378.4 333 -378.4 C 345.8 -378.4 358.6 -372 358.6 -372 C 358.6 -365.6 345.8 -359.2 333 -359.2 Z M 518.6 -429.6 C 493 -429.6 480.2 -416.8 480.2 -404 C 480.2 -391.2 499.4 -378.4 518.6 -378.4 C 544.2 -378.4 557 -391.2 557 -404 C 563.4 -423.2 544.2 -429.6 518.6 -429.6 Z M 518.6 -397.6 C 505.8 -397.6 493 -404 493 -404 C 493 -404 499.4 -410.4 518.6 -410.4 C 531.4 -410.4 544.2 -404 544.2 -404 C 544.2 -404 537.8 -397.6 518.6 -397.6 Z M 147.4 -269.6 C 141 -269.6 134.6 -263.2 134.6 -263.2 L 134.6 -160.8 C 134.6 -154.4 141 -154.4 141 -154.4 C 147.4 -154.4 147.4 -160.8 147.4 -160.8 L 147.4 -263.2 C 153.8 -263.2 147.4 -269.6 147.4 -269.6 Z M 333 -237.6 C 326.6 -237.6 326.6 -231.2 326.6 -231.2 L 326.6 -103.2 C 326.6 -96.8 333 -96.8 333 -96.8 C 339.4 -96.8 339.4 -103.2 339.4 -103.2 L 339.4 -231.2 C 345.8 -231.2 339.4 -237.6 333 -237.6 Z M 531.4 -269.6 C 525 -269.6 525 -263.2 525 -263.2 L 525 -160.8 C 525 -154.4 531.4 -154.4 531.4 -154.4 C 537.8 -154.4 537.8 -160.8 537.8 -160.8 L 537.8 -263.2 Z" fill="white"/>
    </g>
  </g>
</svg>
