<?xml version="1.0" encoding="UTF-8" standalone="no"?>
<!DOCTYPE svg PUBLIC "-//W3C//DTD SVG 1.1//EN" "http://www.w3.org/Graphics/SVG/1.1/DTD/svg11.dtd">
<svg xmlns="http://www.w3.org/2000/svg" xmlns:xl="http://www.w3.org/1999/xlink" version="1.1" viewBox="202 -856 410 666" width="410pt" height="666pt" xmlns:dc="http://purl.org/dc/elements/1.1/">
  <metadata> Produced by OmniGraffle 7.2 
    <dc:date>2018-11-06 17:28:00 +0000</dc:date>
  </metadata>
  <defs/>
  <g stroke="none" stroke-opacity="1" stroke-dasharray="none" fill="none" fill-opacity="1">
    <title>版面 1</title>
    <rect fill="white" width="700" height="700"/>
    <g>
      <title>图层 1</title>
      <path d="M 407 -548.6 C 323.8 -548.6 253.4 -619 253.4 -702.2 C 253.4 -785.4 323.8 -855.8 407 -855.8 C 490.2 -855.8 560.6 -785.4 560.6 -702.2 C 567 -619 496.6 -548.6 407 -548.6 Z M 407 -836.6 C 330.2 -836.6 272.6 -772.6 272.6 -702.2 C 272.6 -631.8 336.6 -567.8 407 -567.8 C 483.8 -567.8 541.4 -631.8 541.4 -702.2 C 541.4 -772.6 483.8 -836.6 407 -836.6 Z" fill="white"/>
      <circle cx="413.4" cy="-702.2" r="96" fill="white"/>
      <path d="M 266.2 -401.4 L 240.6 -401.4 C 221.4 -401.4 202.2 -420.6 202.2 -439.8 L 202.2 -574.2 C 202.2 -593.4 221.4 -612.6 240.6 -612.6 L 259.8 -612.6 C 279 -612.6 298.2 -593.4 298.2 -574.2 L 298.2 -439.8 C 298.2 -420.6 285.4 -401.4 266.2 -401.4 Z M 240.6 -593.4 C 227.8 -593.4 221.4 -587 221.4 -574.2 L 221.4 -439.8 C 221.4 -427 227.8 -420.6 240.6 -420.6 L 259.8 -420.6 C 272.6 -420.6 279 -427 279 -439.8 L 279 -574.2 C 279 -587 272.6 -593.4 259.8 -593.4 Z M 573.4 -401.4 L 554.2 -401.4 C 535 -401.4 515.8 -420.6 515.8 -439.8 L 515.8 -574.2 C 515.8 -593.4 535 -612.6 554.2 -612.6 L 573.4 -612.6 C 592.6 -612.6 611.8 -593.4 611.8 -574.2 L 611.8 -439.8 C 611.8 -420.6 592.6 -401.4 573.4 -401.4 Z M 547.8 -593.4 C 535 -593.4 528.6 -587 528.6 -574.2 L 528.6 -439.8 C 528.6 -427 535 -420.6 547.8 -420.6 L 567 -420.6 C 579.8 -420.6 586.2 -427 586.2 -439.8 L 586.2 -574.2 C 586.2 -587 579.8 -593.4 567 -593.4 Z" fill="white"/>
      <path d="M 368.6 -190.2 L 343 -190.2 C 317.4 -190.2 291.8 -209.4 291.8 -241.4 L 291.8 -599.8 C 291.8 -606.2 298.2 -606.2 298.2 -606.2 C 304.6 -606.2 304.6 -599.8 304.6 -599.8 L 304.6 -241.4 C 304.6 -222.2 317.4 -209.4 336.6 -209.4 L 362.2 -209.4 C 381.4 -209.4 394.2 -222.2 394.2 -241.4 L 394.2 -350.2 C 394.2 -356.6 400.6 -356.6 400.6 -356.6 C 407 -356.6 407 -350.2 407 -350.2 L 407 -241.4 C 419.8 -209.4 394.2 -190.2 368.6 -190.2 Z" fill="white"/>
      <path d="M 477.4 -190.2 L 451.8 -190.2 C 426.2 -190.2 400.6 -209.4 400.6 -241.4 L 400.6 -350.2 C 400.6 -356.6 407 -356.6 407 -356.6 L 413.4 -350.2 L 413.4 -241.4 C 413.4 -222.2 426.2 -209.4 445.4 -209.4 L 471 -209.4 C 490.2 -209.4 503 -222.2 503 -241.4 L 503 -599.8 C 503 -606.2 509.4 -606.2 509.4 -606.2 C 515.8 -606.2 515.8 -599.8 515.8 -599.8 L 515.8 -241.4 C 528.6 -209.4 503 -190.2 477.4 -190.2 Z" fill="white"/>
      <path d="M 451.8 -459 C 451.8 -439.8 439 -427 419.8 -427 L 394.2 -427 C 381.4 -427 368.6 -439.8 368.6 -459 C 368.6 -478.2 381.4 -491 400.6 -491 L 426.2 -491 C 439 -491 451.8 -478.2 451.8 -459 Z" fill="white"/>
    </g>
  </g>
</svg>
