<?xml version="1.0" encoding="UTF-8" standalone="no"?>
<!DOCTYPE svg PUBLIC "-//W3C//DTD SVG 1.1//EN" "http://www.w3.org/Graphics/SVG/1.1/DTD/svg11.dtd">
<svg xmlns="http://www.w3.org/2000/svg" xmlns:xl="http://www.w3.org/1999/xlink" version="1.1" viewBox="82 -1122 672 672" width="56pc" height="56pc" xmlns:dc="http://purl.org/dc/elements/1.1/">
  <metadata> Produced by OmniGraffle 7.2 
    <dc:date>2018-11-06 17:27:00 +0000</dc:date>
  </metadata>
  <defs/>
  <g stroke="none" stroke-opacity="1" stroke-dasharray="none" fill="none" fill-opacity="1">
    <title>版面 1</title>
    <rect fill="white" width="700" height="700"/>
    <g>
      <title>图层 1</title>
      <path d="M 198.07273 -786 C 198.07273 -669.9273 295.81818 -572.1818 411.8909 -572.1818 C 527.96364 -572.1818 625.7091 -669.9273 625.7091 -786 C 625.7091 -902.0727 527.96364 -999.8182 411.8909 -999.8182 C 332.47273 -999.8182 265.27273 -957.0546 228.61818 -889.8546 L 216.4 -889.8546 C 191.96364 -889.8546 179.74545 -871.5273 179.74545 -853.2 C 179.74545 -834.8727 191.96364 -822.65455 204.18182 -816.54545 C 198.07273 -810.4364 198.07273 -798.2182 198.07273 -786 Z M 411.8909 -981.4909 C 521.85455 -981.4909 607.3818 -895.9636 607.3818 -786 C 607.3818 -676.0364 521.85455 -590.5091 411.8909 -590.5091 C 301.92727 -590.5091 216.4 -676.0364 216.4 -786 L 216.4 -816.54545 C 234.72727 -816.54545 253.05455 -834.8727 253.05455 -853.2 C 253.05455 -865.4182 246.94545 -877.6364 240.83636 -883.7454 C 277.4909 -944.8364 338.5818 -981.4909 411.8909 -981.4909 Z" fill="white"/>
      <path d="M 418 -450 C 601.2727 -450 754 -602.7273 754 -786 C 754 -877.6364 717.34545 -963.1636 650.14545 -1024.2546 C 656.25455 -1036.4727 656.25455 -1042.5818 656.25455 -1054.8 C 656.25455 -1091.4545 625.7091 -1122 589.05455 -1122 C 564.6182 -1122 546.2909 -1109.7818 534.0727 -1091.4545 C 497.4182 -1109.7818 460.76364 -1122 418 -1122 C 234.72727 -1122 82 -969.2727 82 -786 C 82 -602.7273 234.72727 -450 418 -450 Z M 418 -1103.6727 C 454.65455 -1103.6727 491.3091 -1097.5636 527.96364 -1085.3455 C 527.96364 -1079.2364 521.85455 -1067.0182 521.85455 -1060.9091 C 521.85455 -1024.2546 552.4 -993.7091 589.05455 -993.7091 C 607.3818 -993.7091 625.7091 -999.8182 637.9273 -1012.0364 C 699.0182 -957.0546 735.6727 -871.5273 735.6727 -786 C 735.6727 -608.83636 595.16364 -468.3273 418 -468.3273 C 240.83636 -468.3273 100.32727 -608.83636 100.32727 -786 C 100.32727 -963.1636 240.83636 -1103.6727 418 -1103.6727 Z" fill="white"/>
      <circle cx="411.8909" cy="-786" r="122.18202" fill="white"/>
    </g>
  </g>
</svg>
