<?xml version="1.0" encoding="UTF-8" standalone="no"?>
<!DOCTYPE svg PUBLIC "-//W3C//DTD SVG 1.1//EN" "http://www.w3.org/Graphics/SVG/1.1/DTD/svg11.dtd">
<svg xmlns="http://www.w3.org/2000/svg" xmlns:xl="http://www.w3.org/1999/xlink" version="1.1" viewBox="1415 -3262 800 800" width="800pt" height="800pt" xmlns:dc="http://purl.org/dc/elements/1.1/">
  <metadata> Produced by OmniGraffle 7.2 
    <dc:date>2018-11-06 17:54:24 +0000</dc:date>
  </metadata>
  <defs/>
  <g stroke="none" stroke-opacity="1" stroke-dasharray="none" fill="none" fill-opacity="1">
    <title>版面 1</title>
    <rect fill="white" width="700" height="700"/>
    <g>
      <title>图层 1</title>
      <path d="M 1815.0063 -2462 C 1594.0778 -2462 1415 -2641.075 1415 -2862 C 1415 -3082.925 1594.0778 -3262 1815.0063 -3262 C 2035.9222 -3262 2215 -3082.925 2215 -2862 C 2215 -2641.075 2035.9222 -2462 1815.0063 -2462 Z M 1815.0063 -3212 C 1622.0032 -3212 1465.0008 -3055 1465.0008 -2862 C 1465.0008 -2669.0125 1622.0032 -2512 1815.0063 -2512 C 2007.9968 -2512 2164.9992 -2669.0125 2164.9992 -2862 C 2164.9992 -3055 2007.9968 -3212 1815.0063 -3212 Z M 1939.6082 -2887.125 C 1912.0453 -2887.125 1889.7324 -2909.475 1889.7324 -2937.0125 C 1889.7324 -2964.525 1912.0453 -2986.8625 1939.6082 -2986.8625 C 1967.1586 -2986.8625 1989.484 -2964.525 1989.484 -2937.0125 C 1989.484 -2909.475 1967.1586 -2887.125 1939.6082 -2887.125 Z M 1689.6043 -2887.125 C 1662.0414 -2887.125 1639.7285 -2909.475 1639.7285 -2937.0125 C 1639.7285 -2964.525 1662.0414 -2986.8625 1689.6043 -2986.8625 C 1717.1547 -2986.8625 1739.48 -2964.525 1739.48 -2937.0125 C 1739.48 -2909.475 1717.1547 -2887.125 1689.6043 -2887.125 Z" fill="white"/>
      <path d="M 1665 -2668.4365 C 1654.6806 -2668.746 1644.936 -2679.3843 1645 -2693.4365 C 1645.0977 -2707.5013 1654.7611 -2717.8358 1665 -2717.6365 C 1668.859 -2717.559 1954.6145 -2717.323 1965 -2717.4365 C 1975.3855 -2717.55 1984.9762 -2707.7207 1985 -2693.4365 C 1985.0571 -2679.266 1974.9873 -2668.4976 1965 -2668.4365 C 1960.4364 -2668.398 1669.8403 -2668.287 1665 -2668.4365 Z" fill="white"/>
    </g>
  </g>
</svg>
