<?xml version="1.0" encoding="UTF-8" standalone="no"?>
<!DOCTYPE svg PUBLIC "-//W3C//DTD SVG 1.1//EN" "http://www.w3.org/Graphics/SVG/1.1/DTD/svg11.dtd">
<svg xmlns="http://www.w3.org/2000/svg" xmlns:xl="http://www.w3.org/1999/xlink" version="1.1" viewBox="5163 -6245 805 804" width="805pt" height="67pc" xmlns:dc="http://purl.org/dc/elements/1.1/">
  <metadata> Produced by OmniGraffle 7.2 
    <dc:date>2018-11-06 18:37:38 +0000</dc:date>
  </metadata>
  <defs/>
  <g stroke="none" stroke-opacity="1" stroke-dasharray="none" fill="none" fill-opacity="1">
    <title>版面 1</title>
    <rect fill="white" width="700" height="700"/>
    <g>
      <title>图层 1</title>
      <path d="M 5936.328 -5999.58 C 5895.707 -6095.689 5818.8894 -6172.419 5722.1065 -6213.5575 C 5621.9714 -6255.481 5508.9265 -6255.481 5408.791 -6213.5575 C 5360.9025 -6193.314 5317.45 -6164.059 5280.851 -6127.421 C 5205.109 -6051.752 5162.739 -5949.5145 5163.001 -5843.051 C 5162.696 -5682.071 5259.365 -5536.373 5408.8283 -5472.544 C 5458.355 -5451.649 5511.658 -5440.917 5565.5045 -5441.0005 C 5672.4907 -5440.8316 5775.0385 -5483.2684 5850.01 -5558.736 C 5886.9294 -5595.351 5916.2576 -5638.7395 5936.3096 -5686.4854 C 5978.557 -5786.669 5978.564 -5899.3914 5936.328 -5999.58 Z M 5690 -5970.2 C 5721.254 -5970.2 5740.6 -5949.3974 5740.6 -5918 C 5740.6 -5886.749 5721.054 -5867 5689.8 -5867 C 5658.454 -5867 5638.8 -5886.949 5638.8 -5918.2 C 5638.8 -5949.616 5658.654 -5970.2 5690 -5970.2 Z M 5439.5 -5970 C 5470.865 -5970 5490.8 -5949.306 5490.8 -5918 C 5490.8 -5886.694 5470.765 -5867.2 5439.4 -5867.2 C 5424.223 -5867.233 5414.8606 -5870.718 5404.2 -5881.4 C 5393.5395 -5892.082 5388.632 -5903.194 5388.8 -5918.2 C 5388.8186 -5949.469 5408.1537 -5970.5 5439.5 -5970.5 Z M 5776.893 -5717.315 C 5757.8 -5677.2 5723.324 -5648.1416 5690 -5626 C 5619.565 -5579.42 5510.023 -5579.42 5440 -5626 C 5406.9105 -5648.1204 5373 -5684.877 5354.153 -5717.26 C 5346.728 -5729.986 5342.2944 -5754.442 5359.948 -5756.951 C 5377.5 -5759 5380.6795 -5750.48 5391.5 -5745 C 5435.4565 -5721.8696 5497.382 -5695 5563 -5695 C 5628.618 -5695 5669.8304 -5705.7 5737 -5742 C 5753.5 -5750.5 5756.7285 -5758.411 5771.098 -5756.9325 C 5785.5 -5755 5786.151 -5729.8924 5776.893 -5717.315 Z" fill="white"/>
    </g>
  </g>
</svg>
