<?xml version="1.0" encoding="UTF-8" standalone="no"?>
<!DOCTYPE svg PUBLIC "-//W3C//DTD SVG 1.1//EN" "http://www.w3.org/Graphics/SVG/1.1/DTD/svg11.dtd">
<svg xmlns="http://www.w3.org/2000/svg" xmlns:xl="http://www.w3.org/1999/xlink" version="1.1" viewBox="-670 -3119 895 760" width="895pt" height="760pt" xmlns:dc="http://purl.org/dc/elements/1.1/">
  <metadata> Produced by OmniGraffle 7.2 
    <dc:date>2018-11-06 18:56:33 +0000</dc:date>
  </metadata>
  <defs/>
  <g stroke="none" stroke-opacity="1" stroke-dasharray="none" fill="none" fill-opacity="1">
    <title>版面 1</title>
    <rect fill="white" width="1018" height="1024"/>
    <g>
      <title>图层 1</title>
      <path d="M -222.7 -2359.2 C -331.6 -2359.2 -670 -2636.7 -670 -2881.4 C -670 -3012.4 -563.4 -3119 -432.4 -3119 C -337.5 -3119 -257.6 -3068.8 -222.7 -3042.9 C -187.8 -3068.8 -107.9 -3119 -13 -3119 C 118 -3119 224.6 -3012.4 224.6 -2881.4 C 224.6 -2636.7 -113.8 -2359.2 -222.7 -2359.2 Z M -432.4 -3063.1 C -532.6 -3063.1 -614.1 -2981.6 -614.1 -2881.4 C -614.1 -2660.4 -287.3 -2415.1 -222.7 -2415.1 C -158.1 -2415.1 168.7 -2660.4 168.7 -2881.4 C 168.7 -2981.6 87.2 -3063.1 -13 -3063.1 C -116.9 -3063.1 -203.2 -2987.1 -204.1 -2986.3 C -214.7 -2976.8 -230.8 -2976.8 -241.4 -2986.3 C -242.2 -2987.1 -329.1 -3063.1 -432.4 -3063.1 Z" fill="white"/>
    </g>
  </g>
</svg>
