<?xml version="1.0" standalone="no"?><!DOCTYPE svg PUBLIC "-//W3C//DTD SVG 1.1//EN" "http://www.w3.org/Graphics/SVG/1.1/DTD/svg11.dtd"><svg class="icon" width="500px" height="500.00px" viewBox="0 0 1024 1024" version="1.1" xmlns="http://www.w3.org/2000/svg"><path d="M512 42.666667C251.733333 42.666667 42.666667 251.733333 42.666667 512s209.066667 469.333333 469.333333 469.333333 469.333333-209.066667 469.333333-469.333333S772.266667 42.666667 512 42.666667zM512 938.666667C277.333333 938.666667 85.333333 746.666667 85.333333 512 85.333333 277.333333 277.333333 85.333333 512 85.333333s426.666667 192 426.666667 426.666667C938.666667 746.666667 746.666667 938.666667 512 938.666667zM448 640c-36.266667 0-64 27.733333-64 64 0 36.266667 27.733333 64 64 64 36.266667 0 64-27.733333 64-64C512 667.733333 484.266667 640 448 640zM448 725.333333c-12.8 0-21.333333-8.533333-21.333333-21.333333 0-12.8 8.533333-21.333333 21.333333-21.333333 12.8 0 21.333333 8.533333 21.333333 21.333333C469.333333 716.8 460.8 725.333333 448 725.333333zM256 554.666667c-23.466667 0-42.666667 19.2-42.666667 42.666667s19.2 42.666667 42.666667 42.666667 42.666667-19.2 42.666667-42.666667S279.466667 554.666667 256 554.666667zM768 426.666667c-46.933333 0-85.333333 38.4-85.333333 85.333333s38.4 85.333333 85.333333 85.333333 85.333333-38.4 85.333333-85.333333S814.933333 426.666667 768 426.666667zM768 554.666667c-23.466667 0-42.666667-19.2-42.666667-42.666667s19.2-42.666667 42.666667-42.666667 42.666667 19.2 42.666667 42.666667S791.466667 554.666667 768 554.666667zM661.333333 768c-12.8 0-21.333333 8.533333-21.333333 21.333333 0 12.8 8.533333 21.333333 21.333333 21.333333 12.8 0 21.333333-8.533333 21.333333-21.333333C682.666667 776.533333 674.133333 768 661.333333 768zM384 213.333333c-70.4 0-128 57.6-128 128 0 70.4 57.6 128 128 128 70.4 0 128-57.6 128-128C512 270.933333 454.4 213.333333 384 213.333333zM384 426.666667c-46.933333 0-85.333333-38.4-85.333333-85.333333s38.4-85.333333 85.333333-85.333333 85.333333 38.4 85.333333 85.333333S430.933333 426.666667 384 426.666667zM576 512c-12.8 0-21.333333 8.533333-21.333333 21.333333s8.533333 21.333333 21.333333 21.333333c12.8 0 21.333333-8.533333 21.333333-21.333333S588.8 512 576 512z" fill="#3a5399" /></svg>